<svg xmlns="http://www.w3.org/2000/svg" xmlns:v="https://svgstorm.com"
viewBox = "0 0 500 500"
width="500"
height="500">
<g fill="None" fill-opacity="0.0" stroke="#000000" stroke-opacity="0.00" stroke-width="0.3"><path d="
M 0.00 500.00 
L 500.00 500.00
L 500.00 0.00
L 0.00 0.00
L 0.00 500.00
M 300.00 62.00 
C 340.53 65.68 376.62 89.32 394.77 127.23 C 412.92 165.14 404.87 220.07 377.00 252.00
C 396.92 272.29 405.19 301.77 404.00 330.00 C 402.81 358.23 394.89 384.94 373.75 404.75 C 352.62 424.56 334.56 437.45 304.00 440.00 C 273.44 442.55 232.80 440.64 200.00 441.00 C 167.20 441.36 127.48 441.56 95.00 440.00
C 94.25 431.76 95.29 423.27 95.00 415.00 C 94.71 406.73 95.03 398.26 95.00 390.00 C 94.97 381.74 94.78 373.19 95.00 365.00 C 95.22 356.81 94.39 348.03 95.00 340.00 C 95.61 331.97 93.59 322.68 95.00 315.00 C 96.41 307.32 91.85 296.88 95.00 290.00
C 94.09 288.96 104.51 287.22 108.00 288.00 C 111.49 288.78 119.62 287.59 124.00 288.00 C 128.38 288.41 134.13 287.75 139.00 288.00 C 143.87 288.25 149.92 287.73 155.00 288.00 C 160.08 288.27 165.88 287.54 171.00 288.00
C 171.00 281.88 170.88 275.05 171.00 269.00 C 171.12 262.95 170.71 254.70 171.00 249.00 C 171.29 243.30 170.30 234.70 171.00 230.00 C 171.70 225.30 168.61 212.65 173.00 212.00
C 177.66 207.15 190.85 212.50 198.00 211.00 C 205.15 209.50 216.01 211.61 224.00 211.00 C 231.99 210.39 241.61 211.13 250.00 211.00 C 258.39 210.87 267.39 210.74 276.00 211.00 C 284.61 211.26 294.35 210.22 303.00 211.00
C 320.47 209.00 331.66 187.96 330.00 171.00 C 328.34 154.04 310.49 140.60 294.00 139.00
C 284.17 139.00 273.78 139.21 264.00 139.00 C 254.22 138.79 243.57 139.57 234.00 139.00 C 224.43 138.43 213.09 140.30 204.00 139.00 C 194.91 137.70 181.99 141.90 174.00 139.00 C 166.01 136.10 172.73 119.94 171.00 112.00 C 169.27 104.06 171.98 90.89 171.00 82.00 C 170.02 73.11 168.65 59.25 180.00 61.00 C 191.35 62.75 199.38 60.25 210.00 61.00 C 220.62 61.76 229.68 60.74 240.00 61.00 C 250.32 61.26 259.78 61.05 270.00 61.00 C 280.22 60.95 290.07 61.10 300.00 62.00 Z"/>
</g>
<g fill="None" fill-opacity="0.0" stroke="#D3EFFB" stroke-opacity="0.27" stroke-width="0.3"><path d="
M 294.00 139.00 
C 294.50 139.00 295.00 139.00 295.00 139.00
C 285.97 138.13 275.76 137.91 266.00 138.00 C 256.24 138.09 245.73 138.33 236.00 138.00 C 226.27 137.67 215.53 138.96 206.00 138.00 C 196.47 137.04 185.02 140.23 176.00 138.00 C 166.98 135.77 173.89 120.81 172.00 112.00 C 170.11 103.19 173.85 91.13 172.00 81.00 C 170.15 70.87 172.14 60.56 184.00 63.00 C 195.86 65.44 203.14 61.94 214.00 63.00 C 224.86 64.06 233.57 62.61 244.00 63.00 C 254.43 63.39 263.70 63.02 274.00 63.00 C 284.30 62.98 293.95 63.32 304.00 64.00
C 303.12 63.76 300.84 62.18 300.00 62.00
C 290.07 61.10 280.22 60.95 270.00 61.00 C 259.78 61.05 250.32 61.26 240.00 61.00 C 229.68 60.74 220.62 61.76 210.00 61.00 C 199.38 60.25 191.35 62.75 180.00 61.00 C 168.65 59.25 170.02 73.11 171.00 82.00 C 171.98 90.89 169.27 104.06 171.00 112.00 C 172.73 119.94 166.01 136.10 174.00 139.00 C 181.99 141.90 194.91 137.70 204.00 139.00 C 213.09 140.30 224.43 138.43 234.00 139.00 C 243.57 139.57 254.22 138.79 264.00 139.00 C 273.78 139.21 284.17 139.00 294.00 139.00 Z"/>
</g>
<g fill="None" fill-opacity="0.0" stroke="#E2F8F5" stroke-opacity="0.14" stroke-width="0.3"><path d="
M 304.00 64.00 
C 319.73 65.07 336.72 72.12 350.08 79.92 C 363.45 87.72 372.91 97.22 382.25 109.75 C 391.59 122.28 398.10 137.41 400.98 153.02 C 403.86 168.63 404.36 193.85 398.22 208.22 C 392.09 222.60 389.13 239.62 376.00 249.00
C 375.42 248.39 376.61 253.31 377.00 254.00
C 388.27 273.83 402.00 289.93 402.00 314.00
C 402.79 322.17 402.98 331.88 402.00 340.00
C 401.58 360.86 392.13 379.86 378.75 396.75 C 365.36 413.63 351.62 423.36 330.78 431.78 C 309.93 440.19 282.95 440.31 258.00 440.00 C 233.05 439.69 200.63 440.00 175.00 440.00
C 148.67 440.00 122.33 439.99 96.00 440.00
C 95.50 440.00 95.00 440.00 95.00 440.00
C 127.48 441.56 167.20 441.36 200.00 441.00 C 232.80 440.64 273.44 442.55 304.00 440.00 C 334.56 437.45 352.62 424.56 373.75 404.75 C 394.89 384.94 402.81 358.23 404.00 330.00 C 405.19 301.77 396.92 272.29 377.00 252.00
C 404.87 220.07 412.92 165.14 394.77 127.23 C 376.62 89.32 340.53 65.68 300.00 62.00
C 300.84 62.18 303.12 63.76 304.00 64.00 Z"/>
</g>
<g fill="None" fill-opacity="0.0" stroke="#5BBDEA" stroke-opacity="0.99" stroke-width="0.3"><path d="
M 295.00 139.00 
C 307.61 139.00 316.70 144.90 324.75 154.25 C 332.80 163.60 332.90 181.64 328.08 191.08 C 323.26 200.53 314.21 212.59 303.00 212.00
C 281.74 213.91 260.40 211.30 239.00 212.00 C 217.60 212.70 195.47 212.00 174.00 212.00
C 168.21 215.11 173.37 229.21 172.00 236.00 C 170.63 242.79 172.77 254.18 172.00 262.00 C 171.23 269.82 172.73 280.90 172.00 289.00
C 172.50 289.00 173.50 289.00 174.00 289.00
C 175.35 277.41 171.55 264.25 173.00 252.00 C 174.45 239.75 171.91 226.36 173.00 214.00
C 240.22 220.87 325.23 192.23 373.00 250.00
C 373.40 249.80 374.00 250.00 374.00 250.00
C 374.37 249.93 375.72 249.20 376.00 249.00
C 389.13 239.62 392.09 222.60 398.22 208.22 C 404.36 193.85 403.86 168.63 400.98 153.02 C 398.10 137.41 391.59 122.28 382.25 109.75 C 372.91 97.22 363.45 87.72 350.08 79.92 C 336.72 72.12 319.73 65.07 304.00 64.00
C 293.95 63.32 284.30 62.98 274.00 63.00 C 263.70 63.02 254.43 63.39 244.00 63.00 C 233.57 62.61 224.86 64.06 214.00 63.00 C 203.14 61.94 195.86 65.44 184.00 63.00 C 172.14 60.56 170.15 70.87 172.00 81.00 C 173.85 91.13 170.11 103.19 172.00 112.00 C 173.89 120.81 166.98 135.77 176.00 138.00 C 185.02 140.23 196.47 137.04 206.00 138.00 C 215.53 138.96 226.27 137.67 236.00 138.00 C 245.73 138.33 256.24 138.09 266.00 138.00 C 275.76 137.91 285.97 138.13 295.00 139.00 Z"/>
</g>
<g fill="None" fill-opacity="0.0" stroke="#DDF5FC" stroke-opacity="0.17" stroke-width="0.3"><path d="
M 303.00 211.00 
C 302.94 211.01 303.00 212.00 303.00 212.00
C 314.21 212.59 323.26 200.53 328.08 191.08 C 332.90 181.64 332.80 163.60 324.75 154.25 C 316.70 144.90 307.61 139.00 295.00 139.00
C 295.00 139.00 294.50 139.00 294.00 139.00
C 310.49 140.60 328.34 154.04 330.00 171.00 C 331.66 187.96 320.47 209.00 303.00 211.00 Z"/>
</g>
<g fill="None" fill-opacity="0.0" stroke="#FFFFFF" stroke-opacity="0.01" stroke-width="0.3"><path d="
M 173.00 212.00 
C 173.49 211.93 174.00 212.00 174.00 212.00
C 195.47 212.00 217.60 212.70 239.00 212.00 C 260.40 211.30 281.74 213.91 303.00 212.00
C 303.00 212.00 302.94 211.01 303.00 211.00
C 294.35 210.22 284.61 211.26 276.00 211.00 C 267.39 210.74 258.39 210.87 250.00 211.00 C 241.61 211.13 231.99 210.39 224.00 211.00 C 216.01 211.61 205.15 209.50 198.00 211.00 C 190.85 212.50 177.66 207.15 173.00 212.00 Z"/>
</g>
<g fill="None" fill-opacity="0.0" stroke="#C0E6F7" stroke-opacity="0.25" stroke-width="0.3"><path d="
M 171.00 288.00 
C 171.00 288.50 171.00 289.00 171.00 289.00
C 171.50 289.00 172.00 289.00 172.00 289.00
C 172.73 280.90 171.23 269.82 172.00 262.00 C 172.77 254.18 170.63 242.79 172.00 236.00 C 173.37 229.21 168.21 215.11 174.00 212.00
C 174.00 212.00 173.49 211.93 173.00 212.00
C 168.61 212.65 171.70 225.30 171.00 230.00 C 170.30 234.70 171.29 243.30 171.00 249.00 C 170.71 254.70 171.12 262.95 171.00 269.00 C 170.88 275.05 171.00 281.88 171.00 288.00 Z"/>
</g>
<g fill="None" fill-opacity="0.0" stroke="#2EACE3" stroke-opacity="1.00" stroke-width="0.3"><path d="
M 174.00 289.00 
C 213.42 289.00 255.54 285.91 294.00 290.00
C 295.50 290.00 297.55 289.63 299.00 290.00
C 308.24 288.55 318.40 282.63 328.22 281.22 C 338.05 279.82 344.81 271.29 353.08 268.08 C 361.36 264.88 365.35 253.74 373.00 250.00
C 325.23 192.23 240.22 220.87 173.00 214.00
C 171.91 226.36 174.45 239.75 173.00 252.00 C 171.55 264.25 175.35 277.41 174.00 289.00 Z"/>
</g>
<g fill="None" fill-opacity="0.0" stroke="#55C1B3" stroke-opacity="0.99" stroke-width="0.3"><path d="
M 374.00 250.00 
C 373.35 256.09 364.03 260.59 359.77 264.77 C 355.51 268.95 348.05 273.60 342.31 276.31 C 336.56 279.01 328.62 283.77 323.00 286.00
C 344.01 281.57 361.66 266.56 377.00 254.00
C 376.61 253.31 375.42 248.39 376.00 249.00
C 375.72 249.20 374.37 249.93 374.00 250.00 Z"/>
</g>
<g fill="None" fill-opacity="0.0" stroke="#3AAEC1" stroke-opacity="1.00" stroke-width="0.3"><path d="
M 299.00 290.00 
C 299.53 290.14 300.53 290.74 301.00 291.00
C 304.20 290.92 307.28 287.89 311.00 288.00 C 314.72 288.11 319.31 286.78 323.00 286.00
C 328.62 283.77 336.56 279.01 342.31 276.31 C 348.05 273.60 355.51 268.95 359.77 264.77 C 364.03 260.59 373.35 256.09 374.00 250.00
C 374.00 250.00 373.40 249.80 373.00 250.00
C 365.35 253.74 361.36 264.88 353.08 268.08 C 344.81 271.29 338.05 279.82 328.22 281.22 C 318.40 282.63 308.24 288.55 299.00 290.00 Z"/>
</g>
<g fill="None" fill-opacity="0.0" stroke="#5AC698" stroke-opacity="1.00" stroke-width="0.3"><path d="
M 323.00 286.00 
C 319.31 286.78 314.72 288.11 311.00 288.00 C 307.28 287.89 304.20 290.92 301.00 291.00
C 311.90 297.17 325.56 308.56 324.00 323.00
C 324.35 325.47 324.35 327.58 324.00 330.00
C 325.62 345.03 308.82 363.36 294.00 364.00
C 275.54 367.31 255.46 364.32 236.00 365.00 C 216.54 365.68 195.59 365.00 176.00 365.00
C 169.89 367.25 173.33 381.77 173.00 388.00 C 172.67 394.23 172.13 407.40 173.00 414.00 C 173.87 420.60 169.88 433.73 174.00 439.00
C 174.35 439.09 174.77 439.95 175.00 440.00
C 200.63 440.00 233.05 439.69 258.00 440.00 C 282.95 440.31 309.93 440.19 330.78 431.78 C 351.62 423.36 365.36 413.63 378.75 396.75 C 392.13 379.86 401.58 360.86 402.00 340.00
C 402.17 331.34 402.00 322.66 402.00 314.00
C 402.00 289.93 388.27 273.83 377.00 254.00
C 361.66 266.56 344.01 281.57 323.00 286.00 Z"/>
</g>
<g fill="None" fill-opacity="0.0" stroke="#E4FEFE" stroke-opacity="0.05" stroke-width="0.3"><path d="
M 95.00 290.00 
C 95.16 289.64 96.65 289.08 97.00 289.00
C 108.39 286.58 121.32 289.91 133.00 289.00 C 144.68 288.09 157.24 289.00 169.00 289.00
C 169.50 289.00 170.50 289.00 171.00 289.00
C 171.00 289.00 171.00 288.50 171.00 288.00
C 165.88 287.54 160.08 288.27 155.00 288.00 C 149.92 287.73 143.87 288.25 139.00 288.00 C 134.13 287.75 128.38 288.41 124.00 288.00 C 119.62 287.59 111.49 288.78 108.00 288.00 C 104.51 287.22 94.09 288.96 95.00 290.00 Z"/>
</g>
<g fill="None" fill-opacity="0.0" stroke="#9ECCDF" stroke-opacity="0.55" stroke-width="0.3"><path d="
M 95.00 290.00 
C 91.85 296.88 96.41 307.32 95.00 315.00 C 93.59 322.68 95.61 331.97 95.00 340.00 C 94.39 348.03 95.22 356.81 95.00 365.00 C 94.78 373.19 94.97 381.74 95.00 390.00 C 95.03 398.26 94.71 406.73 95.00 415.00 C 95.29 423.27 94.25 431.76 95.00 440.00
C 95.00 440.00 95.50 440.00 96.00 440.00
C 96.25 439.75 96.00 439.00 96.00 439.00
C 96.00 414.00 96.00 389.00 96.00 364.00
C 96.00 356.25 96.02 346.56 96.00 339.00 C 95.98 331.44 96.19 331.64 96.00 326.00 C 95.81 320.36 96.55 318.31 96.00 314.00 C 95.45 309.69 97.16 304.33 96.00 301.00 C 94.84 297.67 98.17 290.32 97.00 289.00
C 96.65 289.08 95.16 289.64 95.00 290.00 Z"/>
</g>
<g fill="None" fill-opacity="0.0" stroke="#59BDEA" stroke-opacity="1.00" stroke-width="0.3"><path d="
M 96.00 364.00 
C 98.80 367.97 109.12 363.88 114.00 365.00 C 118.88 366.12 127.35 364.51 133.00 365.00 C 138.65 365.49 146.02 364.82 152.00 365.00 C 157.98 365.18 164.93 365.00 171.00 365.00
C 171.50 365.00 172.00 365.00 172.00 365.00
C 172.25 364.75 172.00 364.00 172.00 364.00
C 172.00 362.67 172.00 361.33 172.00 360.00
C 170.52 349.16 171.83 335.33 171.00 324.00 C 170.17 312.67 174.07 298.16 169.00 289.00
C 157.24 289.00 144.68 288.09 133.00 289.00 C 121.32 289.91 108.39 286.58 97.00 289.00
C 98.17 290.32 94.84 297.67 96.00 301.00 C 97.16 304.33 95.45 309.69 96.00 314.00 C 96.55 318.31 95.81 320.36 96.00 326.00 C 96.19 331.64 95.98 331.44 96.00 339.00 C 96.02 346.56 96.00 356.25 96.00 364.00 Z"/>
</g>
<g fill="None" fill-opacity="0.0" stroke="#8FCAE7" stroke-opacity="0.59" stroke-width="0.3"><path d="
M 172.00 360.00 
C 172.00 354.42 171.82 348.55 172.00 343.00 C 172.18 337.45 171.57 330.34 172.00 325.00 C 172.43 319.66 171.02 311.69 172.00 307.00 C 172.98 302.31 169.36 292.48 173.00 290.00
C 176.40 287.69 183.42 291.68 188.00 290.00 C 192.58 288.32 199.82 290.76 205.00 290.00 C 210.18 289.24 216.54 290.34 222.00 290.00 C 227.46 289.66 233.40 290.15 239.00 290.00 C 244.60 289.85 250.31 290.07 256.00 290.00 C 261.69 289.93 267.21 290.02 273.00 290.00 C 278.79 289.98 285.16 290.00 291.00 290.00
C 292.00 290.00 293.00 290.00 294.00 290.00
C 255.54 285.91 213.42 289.00 174.00 289.00
C 173.50 289.00 172.50 289.00 172.00 289.00
C 172.00 289.00 171.50 289.00 171.00 289.00
C 170.50 289.00 169.50 289.00 169.00 289.00
C 174.07 298.16 170.17 312.67 171.00 324.00 C 171.83 335.33 170.52 349.16 172.00 360.00 Z"/>
</g>
<g fill="None" fill-opacity="0.0" stroke="#E7FEFF" stroke-opacity="0.05" stroke-width="0.3"><path d="
M 172.00 360.00 
C 172.00 361.33 172.00 362.67 172.00 364.00
C 185.74 362.74 200.20 364.00 214.00 364.00
C 213.96 364.00 214.00 363.00 214.00 363.00
C 200.33 363.00 186.67 363.00 173.00 363.00
C 173.00 338.67 173.00 314.33 173.00 290.00
C 169.36 292.48 172.98 302.31 172.00 307.00 C 171.02 311.69 172.43 319.66 172.00 325.00 C 171.57 330.34 172.18 337.45 172.00 343.00 C 171.82 348.55 172.00 354.42 172.00 360.00 Z"/>
</g>
<g fill="None" fill-opacity="0.0" stroke="#000000" stroke-opacity="0.00" stroke-width="0.3"><path d="
M 214.00 363.00 
C 239.27 363.00 264.75 363.96 290.00 363.00
C 307.56 362.33 322.11 345.47 324.00 329.00
C 324.00 327.33 324.00 325.67 324.00 324.00
C 322.17 308.08 307.31 291.58 291.00 290.00
C 285.16 290.00 278.79 289.98 273.00 290.00 C 267.21 290.02 261.69 289.93 256.00 290.00 C 250.31 290.07 244.60 289.85 239.00 290.00 C 233.40 290.15 227.46 289.66 222.00 290.00 C 216.54 290.34 210.18 289.24 205.00 290.00 C 199.82 290.76 192.58 288.32 188.00 290.00 C 183.42 291.68 176.40 287.69 173.00 290.00
C 173.00 314.33 173.00 338.67 173.00 363.00
C 186.67 363.00 200.33 363.00 214.00 363.00 Z"/>
</g>
<g fill="None" fill-opacity="0.0" stroke="#DEF6EF" stroke-opacity="0.16" stroke-width="0.3"><path d="
M 324.00 324.00 
C 324.00 323.50 324.00 323.00 324.00 323.00
C 325.56 308.56 311.90 297.17 301.00 291.00
C 300.53 290.74 299.53 290.14 299.00 290.00
C 297.55 289.63 295.50 290.00 294.00 290.00
C 293.00 290.00 292.00 290.00 291.00 290.00
C 307.31 291.58 322.17 308.08 324.00 324.00 Z"/>
</g>
<g fill="None" fill-opacity="0.0" stroke="#8BBEAB" stroke-opacity="0.80" stroke-width="0.3"><path d="
M 402.00 340.00 
C 402.98 331.88 402.79 322.17 402.00 314.00
C 402.00 322.66 402.17 331.34 402.00 340.00 Z"/>
</g>
<g fill="None" fill-opacity="0.0" stroke="#B9E9D6" stroke-opacity="0.36" stroke-width="0.3"><path d="
M 324.00 324.00 
C 324.00 325.67 324.00 327.33 324.00 329.00
C 324.00 329.50 324.00 330.00 324.00 330.00
C 324.35 327.58 324.35 325.47 324.00 323.00
C 324.00 323.00 324.00 323.50 324.00 324.00 Z"/>
</g>
<g fill="None" fill-opacity="0.0" stroke="#DAF4EA" stroke-opacity="0.19" stroke-width="0.3"><path d="
M 290.00 363.00 
C 290.02 363.00 290.00 364.00 290.00 364.00
C 291.33 364.00 292.67 364.06 294.00 364.00
C 308.82 363.36 325.62 345.03 324.00 330.00
C 324.00 330.00 324.00 329.50 324.00 329.00
C 322.11 345.47 307.56 362.33 290.00 363.00 Z"/>
</g>
<g fill="None" fill-opacity="0.0" stroke="#FFFFFF" stroke-opacity="0.02" stroke-width="0.3"><path d="
M 214.00 364.00 
C 239.33 364.00 264.67 364.00 290.00 364.00
C 290.00 364.00 290.02 363.00 290.00 363.00
C 264.75 363.96 239.27 363.00 214.00 363.00
C 214.00 363.00 213.96 364.00 214.00 364.00 Z"/>
</g>
<g fill="None" fill-opacity="0.0" stroke="#2DABE4" stroke-opacity="1.00" stroke-width="0.3"><path d="
M 96.00 439.00 
C 120.22 436.82 145.67 439.00 170.00 439.00
C 167.02 432.96 172.70 422.32 171.00 415.00 C 169.30 407.68 171.37 397.76 171.00 390.00 C 170.63 382.24 170.29 372.81 171.00 365.00
C 164.93 365.00 157.98 365.18 152.00 365.00 C 146.02 364.82 138.65 365.49 133.00 365.00 C 127.35 364.51 118.88 366.12 114.00 365.00 C 109.12 363.88 98.80 367.97 96.00 364.00
C 96.00 389.00 96.00 414.00 96.00 439.00 Z"/>
</g>
<g fill="None" fill-opacity="0.0" stroke="#A7DCC7" stroke-opacity="0.53" stroke-width="0.3"><path d="
M 172.00 365.00 
C 172.71 365.43 175.15 365.00 176.00 365.00
C 195.59 365.00 216.54 365.68 236.00 365.00 C 255.46 364.32 275.54 367.31 294.00 364.00
C 292.67 364.06 291.33 364.00 290.00 364.00
C 264.67 364.00 239.33 364.00 214.00 364.00
C 200.20 364.00 185.74 362.74 172.00 364.00
C 172.00 364.00 172.25 364.75 172.00 365.00 Z"/>
</g>
<g fill="None" fill-opacity="0.0" stroke="#3CAECA" stroke-opacity="1.00" stroke-width="0.3"><path d="
M 170.00 439.00 
C 170.50 439.00 171.50 439.00 172.00 439.00
C 168.97 432.18 173.38 422.61 172.00 415.00 C 170.62 407.39 172.79 397.95 172.00 390.00 C 171.21 382.05 172.73 373.03 172.00 365.00
C 172.00 365.00 171.50 365.00 171.00 365.00
C 170.29 372.81 170.63 382.24 171.00 390.00 C 171.37 397.76 169.30 407.68 171.00 415.00 C 172.70 422.32 167.02 432.96 170.00 439.00 Z"/>
</g>
<g fill="None" fill-opacity="0.0" stroke="#66CBC4" stroke-opacity="1.00" stroke-width="0.3"><path d="
M 172.00 439.00 
C 172.50 439.00 173.53 438.88 174.00 439.00
C 169.88 433.73 173.87 420.60 173.00 414.00 C 172.13 407.40 172.67 394.23 173.00 388.00 C 173.33 381.77 169.89 367.25 176.00 365.00
C 175.15 365.00 172.71 365.43 172.00 365.00
C 172.73 373.03 171.21 382.05 172.00 390.00 C 172.79 397.95 170.62 407.39 172.00 415.00 C 173.38 422.61 168.97 432.18 172.00 439.00 Z"/>
</g>
<g fill="None" fill-opacity="0.0" stroke="#71B6D5" stroke-opacity="0.75" stroke-width="0.3"><path d="
M 96.00 440.00 
C 122.33 439.99 148.67 440.00 175.00 440.00
C 174.77 439.95 174.35 439.09 174.00 439.00
C 173.53 438.88 172.50 439.00 172.00 439.00
C 171.50 439.00 170.50 439.00 170.00 439.00
C 145.67 439.00 120.22 436.82 96.00 439.00
C 96.00 439.00 96.25 439.75 96.00 440.00 Z"/>
</g>
<g fill="#000000" fill-opacity="0.00" stroke="None">
<path d="
M 0.00 500.00 
L 500.00 500.00
L 500.00 0.00
L 0.00 0.00
L 0.00 500.00
M 300.00 62.00 
C 340.53 65.68 376.62 89.32 394.77 127.23 C 412.92 165.14 404.87 220.07 377.00 252.00
C 396.92 272.29 405.19 301.77 404.00 330.00 C 402.81 358.23 394.89 384.94 373.75 404.75 C 352.62 424.56 334.56 437.45 304.00 440.00 C 273.44 442.55 232.80 440.64 200.00 441.00 C 167.20 441.36 127.48 441.56 95.00 440.00
C 94.25 431.76 95.29 423.27 95.00 415.00 C 94.71 406.73 95.03 398.26 95.00 390.00 C 94.97 381.74 94.78 373.19 95.00 365.00 C 95.22 356.81 94.39 348.03 95.00 340.00 C 95.61 331.97 93.59 322.68 95.00 315.00 C 96.41 307.32 91.85 296.88 95.00 290.00
C 94.09 288.96 104.51 287.22 108.00 288.00 C 111.49 288.78 119.62 287.59 124.00 288.00 C 128.38 288.41 134.13 287.75 139.00 288.00 C 143.87 288.25 149.92 287.73 155.00 288.00 C 160.08 288.27 165.88 287.54 171.00 288.00
C 171.00 281.88 170.88 275.05 171.00 269.00 C 171.12 262.95 170.71 254.70 171.00 249.00 C 171.29 243.30 170.30 234.70 171.00 230.00 C 171.70 225.30 168.61 212.65 173.00 212.00
C 177.66 207.15 190.85 212.50 198.00 211.00 C 205.15 209.50 216.01 211.61 224.00 211.00 C 231.99 210.39 241.61 211.13 250.00 211.00 C 258.39 210.87 267.39 210.74 276.00 211.00 C 284.61 211.26 294.35 210.22 303.00 211.00
C 320.47 209.00 331.66 187.96 330.00 171.00 C 328.34 154.04 310.49 140.60 294.00 139.00
C 284.17 139.00 273.78 139.21 264.00 139.00 C 254.22 138.79 243.57 139.57 234.00 139.00 C 224.43 138.43 213.09 140.30 204.00 139.00 C 194.91 137.70 181.99 141.90 174.00 139.00 C 166.01 136.10 172.73 119.94 171.00 112.00 C 169.27 104.06 171.98 90.89 171.00 82.00 C 170.02 73.11 168.65 59.25 180.00 61.00 C 191.35 62.75 199.38 60.25 210.00 61.00 C 220.62 61.76 229.68 60.74 240.00 61.00 C 250.32 61.26 259.78 61.05 270.00 61.00 C 280.22 60.95 290.07 61.10 300.00 62.00 Z"/>
</g>
<g fill="#D3EFFB" fill-opacity="0.27" stroke="None">
<path d="
M 294.00 139.00 
C 294.50 139.00 295.00 139.00 295.00 139.00
C 285.97 138.13 275.76 137.91 266.00 138.00 C 256.24 138.09 245.73 138.33 236.00 138.00 C 226.27 137.67 215.53 138.96 206.00 138.00 C 196.47 137.04 185.02 140.23 176.00 138.00 C 166.98 135.77 173.89 120.81 172.00 112.00 C 170.11 103.19 173.85 91.13 172.00 81.00 C 170.15 70.87 172.14 60.56 184.00 63.00 C 195.86 65.44 203.14 61.94 214.00 63.00 C 224.86 64.06 233.57 62.61 244.00 63.00 C 254.43 63.39 263.70 63.02 274.00 63.00 C 284.30 62.98 293.95 63.32 304.00 64.00
C 303.12 63.76 300.84 62.18 300.00 62.00
C 290.07 61.10 280.22 60.95 270.00 61.00 C 259.78 61.05 250.32 61.26 240.00 61.00 C 229.68 60.74 220.62 61.76 210.00 61.00 C 199.38 60.25 191.35 62.75 180.00 61.00 C 168.65 59.25 170.02 73.11 171.00 82.00 C 171.98 90.89 169.27 104.06 171.00 112.00 C 172.73 119.94 166.01 136.10 174.00 139.00 C 181.99 141.90 194.91 137.70 204.00 139.00 C 213.09 140.30 224.43 138.43 234.00 139.00 C 243.57 139.57 254.22 138.79 264.00 139.00 C 273.78 139.21 284.17 139.00 294.00 139.00 Z"/>
</g>
<g fill="#E2F8F5" fill-opacity="0.14" stroke="None">
<path d="
M 304.00 64.00 
C 319.73 65.07 336.72 72.12 350.08 79.92 C 363.45 87.72 372.91 97.22 382.25 109.75 C 391.59 122.28 398.10 137.41 400.98 153.02 C 403.86 168.63 404.36 193.85 398.22 208.22 C 392.09 222.60 389.13 239.62 376.00 249.00
C 375.42 248.39 376.61 253.31 377.00 254.00
C 388.27 273.83 402.00 289.93 402.00 314.00
C 402.79 322.17 402.98 331.88 402.00 340.00
C 401.58 360.86 392.13 379.86 378.75 396.75 C 365.36 413.63 351.62 423.36 330.78 431.78 C 309.93 440.19 282.95 440.31 258.00 440.00 C 233.05 439.69 200.63 440.00 175.00 440.00
C 148.67 440.00 122.33 439.99 96.00 440.00
C 95.50 440.00 95.00 440.00 95.00 440.00
C 127.48 441.56 167.20 441.36 200.00 441.00 C 232.80 440.64 273.44 442.55 304.00 440.00 C 334.56 437.45 352.62 424.56 373.75 404.75 C 394.89 384.94 402.81 358.23 404.00 330.00 C 405.19 301.77 396.92 272.29 377.00 252.00
C 404.87 220.07 412.92 165.14 394.77 127.23 C 376.62 89.32 340.53 65.68 300.00 62.00
C 300.84 62.18 303.12 63.76 304.00 64.00 Z"/>
</g>
<g fill="#5BBDEA" fill-opacity="0.99" stroke="None">
<path d="
M 295.00 139.00 
C 307.61 139.00 316.70 144.90 324.75 154.25 C 332.80 163.60 332.90 181.64 328.08 191.08 C 323.26 200.53 314.21 212.59 303.00 212.00
C 281.74 213.91 260.40 211.30 239.00 212.00 C 217.60 212.70 195.47 212.00 174.00 212.00
C 168.21 215.11 173.37 229.21 172.00 236.00 C 170.63 242.79 172.77 254.18 172.00 262.00 C 171.23 269.82 172.73 280.90 172.00 289.00
C 172.50 289.00 173.50 289.00 174.00 289.00
C 175.35 277.41 171.55 264.25 173.00 252.00 C 174.45 239.75 171.91 226.36 173.00 214.00
C 240.22 220.87 325.23 192.23 373.00 250.00
C 373.40 249.80 374.00 250.00 374.00 250.00
C 374.37 249.93 375.72 249.20 376.00 249.00
C 389.13 239.62 392.09 222.60 398.22 208.22 C 404.36 193.85 403.86 168.63 400.98 153.02 C 398.10 137.41 391.59 122.28 382.25 109.75 C 372.91 97.22 363.45 87.72 350.08 79.92 C 336.72 72.12 319.73 65.07 304.00 64.00
C 293.95 63.32 284.30 62.98 274.00 63.00 C 263.70 63.02 254.43 63.39 244.00 63.00 C 233.57 62.61 224.86 64.06 214.00 63.00 C 203.14 61.94 195.86 65.44 184.00 63.00 C 172.14 60.56 170.15 70.87 172.00 81.00 C 173.85 91.13 170.11 103.19 172.00 112.00 C 173.89 120.81 166.98 135.77 176.00 138.00 C 185.02 140.23 196.47 137.04 206.00 138.00 C 215.53 138.96 226.27 137.67 236.00 138.00 C 245.73 138.33 256.24 138.09 266.00 138.00 C 275.76 137.91 285.97 138.13 295.00 139.00 Z"/>
</g>
<g fill="#DDF5FC" fill-opacity="0.17" stroke="None">
<path d="
M 303.00 211.00 
C 302.94 211.01 303.00 212.00 303.00 212.00
C 314.21 212.59 323.26 200.53 328.08 191.08 C 332.90 181.64 332.80 163.60 324.75 154.25 C 316.70 144.90 307.61 139.00 295.00 139.00
C 295.00 139.00 294.50 139.00 294.00 139.00
C 310.49 140.60 328.34 154.04 330.00 171.00 C 331.66 187.96 320.47 209.00 303.00 211.00 Z"/>
</g>
<g fill="#FFFFFF" fill-opacity="0.01" stroke="None">
<path d="
M 173.00 212.00 
C 173.49 211.93 174.00 212.00 174.00 212.00
C 195.47 212.00 217.60 212.70 239.00 212.00 C 260.40 211.30 281.74 213.91 303.00 212.00
C 303.00 212.00 302.94 211.01 303.00 211.00
C 294.35 210.22 284.61 211.26 276.00 211.00 C 267.39 210.74 258.39 210.87 250.00 211.00 C 241.61 211.13 231.99 210.39 224.00 211.00 C 216.01 211.61 205.15 209.50 198.00 211.00 C 190.85 212.50 177.66 207.15 173.00 212.00 Z"/>
</g>
<g fill="#C0E6F7" fill-opacity="0.25" stroke="None">
<path d="
M 171.00 288.00 
C 171.00 288.50 171.00 289.00 171.00 289.00
C 171.50 289.00 172.00 289.00 172.00 289.00
C 172.73 280.90 171.23 269.82 172.00 262.00 C 172.77 254.18 170.63 242.79 172.00 236.00 C 173.37 229.21 168.21 215.11 174.00 212.00
C 174.00 212.00 173.49 211.93 173.00 212.00
C 168.61 212.65 171.70 225.30 171.00 230.00 C 170.30 234.70 171.29 243.30 171.00 249.00 C 170.71 254.70 171.12 262.95 171.00 269.00 C 170.88 275.05 171.00 281.88 171.00 288.00 Z"/>
</g>
<g fill="#2EACE3" fill-opacity="1.00" stroke="None">
<path d="
M 174.00 289.00 
C 213.42 289.00 255.54 285.91 294.00 290.00
C 295.50 290.00 297.55 289.63 299.00 290.00
C 308.24 288.55 318.40 282.63 328.22 281.22 C 338.05 279.82 344.81 271.29 353.08 268.08 C 361.36 264.88 365.35 253.74 373.00 250.00
C 325.23 192.23 240.22 220.87 173.00 214.00
C 171.91 226.36 174.45 239.75 173.00 252.00 C 171.55 264.25 175.35 277.41 174.00 289.00 Z"/>
</g>
<g fill="#55C1B3" fill-opacity="0.99" stroke="None">
<path d="
M 374.00 250.00 
C 373.35 256.09 364.03 260.59 359.77 264.77 C 355.51 268.95 348.05 273.60 342.31 276.31 C 336.56 279.01 328.62 283.77 323.00 286.00
C 344.01 281.57 361.66 266.56 377.00 254.00
C 376.61 253.31 375.42 248.39 376.00 249.00
C 375.72 249.20 374.37 249.93 374.00 250.00 Z"/>
</g>
<g fill="#3AAEC1" fill-opacity="1.00" stroke="None">
<path d="
M 299.00 290.00 
C 299.53 290.14 300.53 290.74 301.00 291.00
C 304.20 290.92 307.28 287.89 311.00 288.00 C 314.72 288.11 319.31 286.78 323.00 286.00
C 328.62 283.77 336.56 279.01 342.31 276.31 C 348.05 273.60 355.51 268.95 359.77 264.77 C 364.03 260.59 373.35 256.09 374.00 250.00
C 374.00 250.00 373.40 249.80 373.00 250.00
C 365.35 253.74 361.36 264.88 353.08 268.08 C 344.81 271.29 338.05 279.82 328.22 281.22 C 318.40 282.63 308.24 288.55 299.00 290.00 Z"/>
</g>
<g fill="#5AC698" fill-opacity="1.00" stroke="None">
<path d="
M 323.00 286.00 
C 319.31 286.78 314.72 288.11 311.00 288.00 C 307.28 287.89 304.20 290.92 301.00 291.00
C 311.90 297.17 325.56 308.56 324.00 323.00
C 324.35 325.47 324.35 327.58 324.00 330.00
C 325.62 345.03 308.82 363.36 294.00 364.00
C 275.54 367.31 255.46 364.32 236.00 365.00 C 216.54 365.68 195.59 365.00 176.00 365.00
C 169.89 367.25 173.33 381.77 173.00 388.00 C 172.67 394.23 172.13 407.40 173.00 414.00 C 173.87 420.60 169.88 433.73 174.00 439.00
C 174.35 439.09 174.77 439.95 175.00 440.00
C 200.63 440.00 233.05 439.69 258.00 440.00 C 282.95 440.31 309.93 440.19 330.78 431.78 C 351.62 423.36 365.36 413.63 378.75 396.75 C 392.13 379.86 401.58 360.86 402.00 340.00
C 402.17 331.34 402.00 322.66 402.00 314.00
C 402.00 289.93 388.27 273.83 377.00 254.00
C 361.66 266.56 344.01 281.57 323.00 286.00 Z"/>
</g>
<g fill="#E4FEFE" fill-opacity="0.05" stroke="None">
<path d="
M 95.00 290.00 
C 95.16 289.64 96.65 289.08 97.00 289.00
C 108.39 286.58 121.32 289.91 133.00 289.00 C 144.68 288.09 157.24 289.00 169.00 289.00
C 169.50 289.00 170.50 289.00 171.00 289.00
C 171.00 289.00 171.00 288.50 171.00 288.00
C 165.88 287.54 160.08 288.27 155.00 288.00 C 149.92 287.73 143.87 288.25 139.00 288.00 C 134.13 287.75 128.38 288.41 124.00 288.00 C 119.62 287.59 111.49 288.78 108.00 288.00 C 104.51 287.22 94.09 288.96 95.00 290.00 Z"/>
</g>
<g fill="#9ECCDF" fill-opacity="0.55" stroke="None">
<path d="
M 95.00 290.00 
C 91.85 296.88 96.41 307.32 95.00 315.00 C 93.59 322.68 95.61 331.97 95.00 340.00 C 94.39 348.03 95.22 356.81 95.00 365.00 C 94.78 373.19 94.97 381.74 95.00 390.00 C 95.03 398.26 94.71 406.73 95.00 415.00 C 95.29 423.27 94.25 431.76 95.00 440.00
C 95.00 440.00 95.50 440.00 96.00 440.00
C 96.25 439.75 96.00 439.00 96.00 439.00
C 96.00 414.00 96.00 389.00 96.00 364.00
C 96.00 356.25 96.02 346.56 96.00 339.00 C 95.98 331.44 96.19 331.64 96.00 326.00 C 95.81 320.36 96.55 318.31 96.00 314.00 C 95.45 309.69 97.16 304.33 96.00 301.00 C 94.84 297.67 98.17 290.32 97.00 289.00
C 96.65 289.08 95.16 289.64 95.00 290.00 Z"/>
</g>
<g fill="#59BDEA" fill-opacity="1.00" stroke="None">
<path d="
M 96.00 364.00 
C 98.80 367.97 109.12 363.88 114.00 365.00 C 118.88 366.12 127.35 364.51 133.00 365.00 C 138.65 365.49 146.02 364.82 152.00 365.00 C 157.98 365.18 164.93 365.00 171.00 365.00
C 171.50 365.00 172.00 365.00 172.00 365.00
C 172.25 364.75 172.00 364.00 172.00 364.00
C 172.00 362.67 172.00 361.33 172.00 360.00
C 170.52 349.16 171.83 335.33 171.00 324.00 C 170.17 312.67 174.07 298.16 169.00 289.00
C 157.24 289.00 144.68 288.09 133.00 289.00 C 121.32 289.91 108.39 286.58 97.00 289.00
C 98.17 290.32 94.84 297.67 96.00 301.00 C 97.16 304.33 95.45 309.69 96.00 314.00 C 96.55 318.31 95.81 320.36 96.00 326.00 C 96.19 331.64 95.98 331.44 96.00 339.00 C 96.02 346.56 96.00 356.25 96.00 364.00 Z"/>
</g>
<g fill="#8FCAE7" fill-opacity="0.59" stroke="None">
<path d="
M 172.00 360.00 
C 172.00 354.42 171.82 348.55 172.00 343.00 C 172.18 337.45 171.57 330.34 172.00 325.00 C 172.43 319.66 171.02 311.69 172.00 307.00 C 172.98 302.31 169.36 292.48 173.00 290.00
C 176.40 287.69 183.42 291.68 188.00 290.00 C 192.58 288.32 199.82 290.76 205.00 290.00 C 210.18 289.24 216.54 290.34 222.00 290.00 C 227.46 289.66 233.40 290.15 239.00 290.00 C 244.60 289.85 250.31 290.07 256.00 290.00 C 261.69 289.93 267.21 290.02 273.00 290.00 C 278.79 289.98 285.16 290.00 291.00 290.00
C 292.00 290.00 293.00 290.00 294.00 290.00
C 255.54 285.91 213.42 289.00 174.00 289.00
C 173.50 289.00 172.50 289.00 172.00 289.00
C 172.00 289.00 171.50 289.00 171.00 289.00
C 170.50 289.00 169.50 289.00 169.00 289.00
C 174.07 298.16 170.17 312.67 171.00 324.00 C 171.83 335.33 170.52 349.16 172.00 360.00 Z"/>
</g>
<g fill="#E7FEFF" fill-opacity="0.05" stroke="None">
<path d="
M 172.00 360.00 
C 172.00 361.33 172.00 362.67 172.00 364.00
C 185.74 362.74 200.20 364.00 214.00 364.00
C 213.96 364.00 214.00 363.00 214.00 363.00
C 200.33 363.00 186.67 363.00 173.00 363.00
C 173.00 338.67 173.00 314.33 173.00 290.00
C 169.36 292.48 172.98 302.31 172.00 307.00 C 171.02 311.69 172.43 319.66 172.00 325.00 C 171.57 330.34 172.18 337.45 172.00 343.00 C 171.82 348.55 172.00 354.42 172.00 360.00 Z"/>
</g>
<g fill="#000000" fill-opacity="0.00" stroke="None">
<path d="
M 214.00 363.00 
C 239.27 363.00 264.75 363.96 290.00 363.00
C 307.56 362.33 322.11 345.47 324.00 329.00
C 324.00 327.33 324.00 325.67 324.00 324.00
C 322.17 308.08 307.31 291.58 291.00 290.00
C 285.16 290.00 278.79 289.98 273.00 290.00 C 267.21 290.02 261.69 289.93 256.00 290.00 C 250.31 290.07 244.60 289.85 239.00 290.00 C 233.40 290.15 227.46 289.66 222.00 290.00 C 216.54 290.34 210.18 289.24 205.00 290.00 C 199.82 290.76 192.58 288.32 188.00 290.00 C 183.42 291.68 176.40 287.69 173.00 290.00
C 173.00 314.33 173.00 338.67 173.00 363.00
C 186.67 363.00 200.33 363.00 214.00 363.00 Z"/>
</g>
<g fill="#DEF6EF" fill-opacity="0.16" stroke="None">
<path d="
M 324.00 324.00 
C 324.00 323.50 324.00 323.00 324.00 323.00
C 325.56 308.56 311.90 297.17 301.00 291.00
C 300.53 290.74 299.53 290.14 299.00 290.00
C 297.55 289.63 295.50 290.00 294.00 290.00
C 293.00 290.00 292.00 290.00 291.00 290.00
C 307.31 291.58 322.17 308.08 324.00 324.00 Z"/>
</g>
<g fill="#8BBEAB" fill-opacity="0.80" stroke="None">
<path d="
M 402.00 340.00 
C 402.98 331.88 402.79 322.17 402.00 314.00
C 402.00 322.66 402.17 331.34 402.00 340.00 Z"/>
</g>
<g fill="#B9E9D6" fill-opacity="0.36" stroke="None">
<path d="
M 324.00 324.00 
C 324.00 325.67 324.00 327.33 324.00 329.00
C 324.00 329.50 324.00 330.00 324.00 330.00
C 324.35 327.58 324.35 325.47 324.00 323.00
C 324.00 323.00 324.00 323.50 324.00 324.00 Z"/>
</g>
<g fill="#DAF4EA" fill-opacity="0.19" stroke="None">
<path d="
M 290.00 363.00 
C 290.02 363.00 290.00 364.00 290.00 364.00
C 291.33 364.00 292.67 364.06 294.00 364.00
C 308.82 363.36 325.62 345.03 324.00 330.00
C 324.00 330.00 324.00 329.50 324.00 329.00
C 322.11 345.47 307.56 362.33 290.00 363.00 Z"/>
</g>
<g fill="#FFFFFF" fill-opacity="0.02" stroke="None">
<path d="
M 214.00 364.00 
C 239.33 364.00 264.67 364.00 290.00 364.00
C 290.00 364.00 290.02 363.00 290.00 363.00
C 264.75 363.96 239.27 363.00 214.00 363.00
C 214.00 363.00 213.96 364.00 214.00 364.00 Z"/>
</g>
<g fill="#2DABE4" fill-opacity="1.00" stroke="None">
<path d="
M 96.00 439.00 
C 120.22 436.82 145.67 439.00 170.00 439.00
C 167.02 432.96 172.70 422.32 171.00 415.00 C 169.30 407.68 171.37 397.76 171.00 390.00 C 170.63 382.24 170.29 372.81 171.00 365.00
C 164.93 365.00 157.98 365.18 152.00 365.00 C 146.02 364.82 138.65 365.49 133.00 365.00 C 127.35 364.51 118.88 366.12 114.00 365.00 C 109.12 363.88 98.80 367.97 96.00 364.00
C 96.00 389.00 96.00 414.00 96.00 439.00 Z"/>
</g>
<g fill="#A7DCC7" fill-opacity="0.53" stroke="None">
<path d="
M 172.00 365.00 
C 172.71 365.43 175.15 365.00 176.00 365.00
C 195.59 365.00 216.54 365.68 236.00 365.00 C 255.46 364.32 275.54 367.31 294.00 364.00
C 292.67 364.06 291.33 364.00 290.00 364.00
C 264.67 364.00 239.33 364.00 214.00 364.00
C 200.20 364.00 185.74 362.74 172.00 364.00
C 172.00 364.00 172.25 364.75 172.00 365.00 Z"/>
</g>
<g fill="#3CAECA" fill-opacity="1.00" stroke="None">
<path d="
M 170.00 439.00 
C 170.50 439.00 171.50 439.00 172.00 439.00
C 168.97 432.18 173.38 422.61 172.00 415.00 C 170.62 407.39 172.79 397.95 172.00 390.00 C 171.21 382.05 172.73 373.03 172.00 365.00
C 172.00 365.00 171.50 365.00 171.00 365.00
C 170.29 372.81 170.63 382.24 171.00 390.00 C 171.37 397.76 169.30 407.68 171.00 415.00 C 172.70 422.32 167.02 432.96 170.00 439.00 Z"/>
</g>
<g fill="#66CBC4" fill-opacity="1.00" stroke="None">
<path d="
M 172.00 439.00 
C 172.50 439.00 173.53 438.88 174.00 439.00
C 169.88 433.73 173.87 420.60 173.00 414.00 C 172.13 407.40 172.67 394.23 173.00 388.00 C 173.33 381.77 169.89 367.25 176.00 365.00
C 175.15 365.00 172.71 365.43 172.00 365.00
C 172.73 373.03 171.21 382.05 172.00 390.00 C 172.79 397.95 170.62 407.39 172.00 415.00 C 173.38 422.61 168.97 432.18 172.00 439.00 Z"/>
</g>
<g fill="#71B6D5" fill-opacity="0.75" stroke="None">
<path d="
M 96.00 440.00 
C 122.33 439.99 148.67 440.00 175.00 440.00
C 174.77 439.95 174.35 439.09 174.00 439.00
C 173.53 438.88 172.50 439.00 172.00 439.00
C 171.50 439.00 170.50 439.00 170.00 439.00
C 145.67 439.00 120.22 436.82 96.00 439.00
C 96.00 439.00 96.25 439.75 96.00 440.00 Z"/>
</g>
</svg>